# xmcd
#
# Track frame offsets: 
#        150
#        5853
#        21629
#        38672
#        56731
#        78052
#        101736
#        122202
#        143299
#        157814
#        177027
#        186251
#        202285
#
# Disc length: 2956 seconds
#
# Revision: 0
# Processed by: cddbd v1.5.2PL0 Copyright (c) Steve Scherf et al.
# Submitted via: ExactAudioCopyFreeDBPlugin 1.0
#
DISCID=ac0b8a0d
DTITLE=Paisley, Brad - Life amplified world tour: Live from WV
DYEAR=2016
DGENRE=Country
TTITLE0=Into
TTITLE1=Crushin' It
TTITLE2=American Saturday Night
TTITLE3=Perfect Storm
TTITLE4=Country Nation
TTITLE5=Old Alabama
TTITLE6=Then
TTITLE7=Beat This Summer
TTITLE8=I'm Gonna Miss Her
TTITLE9=River Bank
TTITLE10=Take Me Home, Country Roads
TTITLE11=Southern Comfort Zone
TTITLE12=Mud On The Tires
EXTD=
EXTT0=
EXTT1=
EXTT2=
EXTT3=
EXTT4=
EXTT5=
EXTT6=
EXTT7=
EXTT8=
EXTT9=
EXTT10=
EXTT11=
EXTT12=
PLAYORDER=
